<mxfile host="Electron" modified="2024-12-06T10:57:26.246Z" agent="Mozilla/5.0 (Windows NT 10.0; Win64; x64) AppleWebKit/537.36 (KHTML, like Gecko) draw.io/24.2.5 Chrome/120.0.6099.109 Electron/28.1.0 Safari/537.36" etag="OEPymb2h39su9G2ZYD43" version="24.2.5" type="device">
  <diagram name="Page-1" id="SHXwbYo3fdGY5HacOp_-">
    <mxGraphModel dx="1050" dy="629" grid="1" gridSize="10" guides="1" tooltips="1" connect="1" arrows="1" fold="1" page="1" pageScale="1" pageWidth="850" pageHeight="1100" math="0" shadow="0">
      <root>
        <mxCell id="0" />
        <mxCell id="1" parent="0" />
        <mxCell id="kiow5G0xSCx7wn_knXVw-1" value="Constituent" style="shape=umlLifeline;participant=umlActor;perimeter=lifelinePerimeter;whiteSpace=wrap;html=1;container=1;collapsible=0;recursiveResize=0;verticalAlign=top;spacingTop=36;outlineConnect=0;fontSize=20;fontStyle=1;size=40;" vertex="1" parent="1">
          <mxGeometry x="140" y="1020" width="40" height="330" as="geometry" />
        </mxCell>
        <mxCell id="kiow5G0xSCx7wn_knXVw-2" value="&lt;br&gt;&lt;div&gt;Constituency connect&lt;/div&gt;&lt;div&gt;System&lt;/div&gt;" style="html=1;align=center;verticalAlign=middle;dashed=0;fontSize=16;" vertex="1" parent="1">
          <mxGeometry x="580" y="1020" width="160" height="70" as="geometry" />
        </mxCell>
        <mxCell id="kiow5G0xSCx7wn_knXVw-3" value="" style="endArrow=none;dashed=1;html=1;rounded=0;entryX=0.5;entryY=1;entryDx=0;entryDy=0;" edge="1" parent="1">
          <mxGeometry width="50" height="50" relative="1" as="geometry">
            <mxPoint x="670" y="1350" as="sourcePoint" />
            <mxPoint x="670" y="1090" as="targetPoint" />
          </mxGeometry>
        </mxCell>
        <mxCell id="kiow5G0xSCx7wn_knXVw-4" value="" style="endArrow=classic;html=1;rounded=0;" edge="1" parent="1" source="kiow5G0xSCx7wn_knXVw-1">
          <mxGeometry width="50" height="50" relative="1" as="geometry">
            <mxPoint x="230" y="1170" as="sourcePoint" />
            <mxPoint x="670.5" y="1170" as="targetPoint" />
            <Array as="points">
              <mxPoint x="550.5" y="1170" />
            </Array>
          </mxGeometry>
        </mxCell>
        <mxCell id="kiow5G0xSCx7wn_knXVw-5" value="SubmitSurveyResponse(surveyId,responses)" style="text;html=1;strokeColor=none;fillColor=none;align=center;verticalAlign=middle;whiteSpace=wrap;rounded=0;" vertex="1" parent="1">
          <mxGeometry x="330" y="1140" width="210" height="30" as="geometry" />
        </mxCell>
        <mxCell id="kiow5G0xSCx7wn_knXVw-6" value="SendConfirmation(surveyId,User)" style="html=1;verticalAlign=bottom;endArrow=open;dashed=1;endSize=8;curved=0;rounded=0;fontSize=12;" edge="1" parent="1">
          <mxGeometry x="-0.001" relative="1" as="geometry">
            <mxPoint x="665.5" y="1270" as="sourcePoint" />
            <mxPoint x="165" y="1270" as="targetPoint" />
            <mxPoint as="offset" />
          </mxGeometry>
        </mxCell>
        <mxCell id="kiow5G0xSCx7wn_knXVw-7" value="Respond To Survey" style="text;html=1;align=center;verticalAlign=middle;whiteSpace=wrap;rounded=0;fontStyle=1;fontSize=20;" vertex="1" parent="1">
          <mxGeometry y="940" width="450" height="30" as="geometry" />
        </mxCell>
      </root>
    </mxGraphModel>
  </diagram>
</mxfile>
